<?xml version="1.0" encoding="UTF-8"?>
        <svg xmlns="http://www.w3.org/2000/svg" width="820" height="350" viewBox="0 0 820 350">
            <!-- Líneas y etiquetas del eje Y -->
            <line x1="10" y1="338.3" x2="730.0" y2="338.3" stroke="#ccc" stroke-width="1" /><text x="735.0" y="342.3" font-size="12" text-anchor="start">355 m</text><line x1="10" y1="307.8" x2="730.0" y2="307.8" stroke="#ccc" stroke-width="1" /><text x="735.0" y="311.8" font-size="12" text-anchor="start">360 m</text><line x1="10" y1="277.3" x2="730.0" y2="277.3" stroke="#ccc" stroke-width="1" /><text x="735.0" y="281.3" font-size="12" text-anchor="start">365 m</text><line x1="10" y1="246.8" x2="730.0" y2="246.8" stroke="#ccc" stroke-width="1" /><text x="735.0" y="250.8" font-size="12" text-anchor="start">370 m</text><line x1="10" y1="216.3" x2="730.0" y2="216.3" stroke="#ccc" stroke-width="1" /><text x="735.0" y="220.3" font-size="12" text-anchor="start">375 m</text><line x1="10" y1="185.8" x2="730.0" y2="185.8" stroke="#ccc" stroke-width="1" /><text x="735.0" y="189.8" font-size="12" text-anchor="start">380 m</text><line x1="10" y1="155.29999999999998" x2="730.0" y2="155.29999999999998" stroke="#ccc" stroke-width="1" /><text x="735.0" y="159.29999999999998" font-size="12" text-anchor="start">385 m</text><line x1="10" y1="124.79999999999998" x2="730.0" y2="124.79999999999998" stroke="#ccc" stroke-width="1" /><text x="735.0" y="128.79999999999998" font-size="12" text-anchor="start">390 m</text><line x1="10" y1="94.30000000000001" x2="730.0" y2="94.30000000000001" stroke="#ccc" stroke-width="1" /><text x="735.0" y="98.30000000000001" font-size="12" text-anchor="start">395 m</text><line x1="10" y1="63.80000000000001" x2="730.0" y2="63.80000000000001" stroke="#ccc" stroke-width="1" /><text x="735.0" y="67.80000000000001" font-size="12" text-anchor="start">400 m</text><line x1="10" y1="33.30000000000001" x2="730.0" y2="33.30000000000001" stroke="#ccc" stroke-width="1" /><text x="735.0" y="37.30000000000001" font-size="12" text-anchor="start">405 m</text>

            <!-- Polilínea de altitud -->
            <polyline style="fill:none;stroke:red;stroke-width:4" points="10,228.5 25,228.5 40,234.6 55,222.39999999999998 70,185.8 85,173.6 100,161.4 115,82.10000000000002 130,82.10000000000002 145,118.69999999999999 160,100.4 175,82.10000000000002 190,82.10000000000002 205,33.30000000000001 220,33.30000000000001 235,21.100000000000023 250,15.0 265,21.100000000000023 280,21.100000000000023 295,69.89999999999998 310,82.10000000000002 325,100.4 340,118.69999999999999 355,137.0 370,149.2 385,155.29999999999998 400,161.4 415,161.4 430,155.29999999999998 445,155.29999999999998 460,143.10000000000002 475,137.0 490,124.79999999999998 505,118.69999999999999 520,82.10000000000002 535,112.6 550,69.89999999999998 565,100.4 580,179.7 595,198.0 610,204.1 625,204.1 640,320.0 655,313.9 670,307.8 685,307.8 700,283.4 715,277.3 730,252.9" />

            <!-- Marco del gráfico -->
            <rect x="10" y="10" width="720.0" height="330" style="fill:none;stroke:red;stroke-width:2" />

            <!-- Etiqueta del eje Y (vertical a la derecha del marco) -->
            <text x="765.0" y="190.0" font-size="14" text-anchor="middle" transform="rotate(-90 765.0,175.0)">Altitud (m)</text>
        </svg>