<?xml version="1.0" encoding="UTF-8"?>
        <svg xmlns="http://www.w3.org/2000/svg" width="820" height="350" viewBox="0 0 820 350">
            <!-- Líneas y etiquetas del eje Y -->
            <line x1="10" y1="338.3" x2="745.0" y2="338.3" stroke="#ccc" stroke-width="1" /><text x="750.0" y="342.3" fill="white" font-size="12" text-anchor="start">355 m</text><line x1="10" y1="307.8" x2="745.0" y2="307.8" stroke="#ccc" stroke-width="1" /><text x="750.0" y="311.8" fill="white" font-size="12" text-anchor="start">360 m</text><line x1="10" y1="277.3" x2="745.0" y2="277.3" stroke="#ccc" stroke-width="1" /><text x="750.0" y="281.3" fill="white" font-size="12" text-anchor="start">365 m</text><line x1="10" y1="246.8" x2="745.0" y2="246.8" stroke="#ccc" stroke-width="1" /><text x="750.0" y="250.8" fill="white" font-size="12" text-anchor="start">370 m</text><line x1="10" y1="216.3" x2="745.0" y2="216.3" stroke="#ccc" stroke-width="1" /><text x="750.0" y="220.3" fill="white" font-size="12" text-anchor="start">375 m</text><line x1="10" y1="185.8" x2="745.0" y2="185.8" stroke="#ccc" stroke-width="1" /><text x="750.0" y="189.8" fill="white" font-size="12" text-anchor="start">380 m</text><line x1="10" y1="155.29999999999998" x2="745.0" y2="155.29999999999998" stroke="#ccc" stroke-width="1" /><text x="750.0" y="159.29999999999998" fill="white" font-size="12" text-anchor="start">385 m</text><line x1="10" y1="124.79999999999998" x2="745.0" y2="124.79999999999998" stroke="#ccc" stroke-width="1" /><text x="750.0" y="128.79999999999998" fill="white" font-size="12" text-anchor="start">390 m</text><line x1="10" y1="94.30000000000001" x2="745.0" y2="94.30000000000001" stroke="#ccc" stroke-width="1" /><text x="750.0" y="98.30000000000001" fill="white" font-size="12" text-anchor="start">395 m</text><line x1="10" y1="63.80000000000001" x2="745.0" y2="63.80000000000001" stroke="#ccc" stroke-width="1" /><text x="750.0" y="67.80000000000001" fill="white" font-size="12" text-anchor="start">400 m</text><line x1="10" y1="33.30000000000001" x2="745.0" y2="33.30000000000001" stroke="#ccc" stroke-width="1" /><text x="750.0" y="37.30000000000001" fill="white" font-size="12" text-anchor="start">405 m</text>

            <!-- Polilínea de altitud -->
            <polyline style="fill:none;stroke:red;stroke-width:4" points="10,255.15700000000004 25,228.5 40,228.5 55,234.6 70,222.39999999999998 85,185.8 100,173.6 115,161.4 130,82.10000000000002 145,82.10000000000002 160,118.69999999999999 175,100.4 190,82.10000000000002 205,82.10000000000002 220,33.30000000000001 235,33.30000000000001 250,21.100000000000023 265,15.0 280,21.100000000000023 295,21.100000000000023 310,69.89999999999998 325,82.10000000000002 340,100.4 355,118.69999999999999 370,137.0 385,149.2 400,155.29999999999998 415,161.4 430,161.4 445,155.29999999999998 460,155.29999999999998 475,143.10000000000002 490,137.0 505,124.79999999999998 520,118.69999999999999 535,82.10000000000002 550,112.6 565,69.89999999999998 580,100.4 595,179.7 610,198.0 625,204.1 640,320.0 655,313.9 670,313.9 685,307.8 700,307.8 715,283.4 730,277.3 745,252.9" />

            <!-- Marco del gráfico -->
            <rect x="10" y="10" width="735.0" height="330" style="fill:none;stroke:red;stroke-width:2" />

            <!-- Etiqueta del eje Y (vertical a la derecha del marco) -->
            <text x="780.0" y="205.0" font-size="14" fill="white" text-anchor="middle" transform="rotate(-90 780.0,175.0)">Altitud (m)</text>
        </svg>