<svg version="1.1" viewBox="0 0 400 200" xmlns="http://www.w3.org/2000/svg">
  <style type="text/css">
    path{fill:#fff}
  </style>
  <polygon points="0 200 400 200 400 0 0 0" fill-rule="evenodd" clip-rule="evenodd" fill="#e20714"/>
  <path d="M127 129c-.1 1.4-.1 2.8 0 4.3v26h-18.5c-.2-.8-.3-89 0-90.3.8-.2 16.6-.3 17.8 0l.8 5.8c.3-.3.6-.3.7-.5 3.5-5.2 9.1-8.5 15.4-9 7.7-1.2 15.6.8 21.8 5.6 3.7 3.1 6.6 7.1 8.4 11.6 1.7 4 2.8 8.3 3.3 12.6.4 3.5.6 7 .4 10.5-.1 7.3-2.1 14.4-5.6 20.7-4 7-10.9 11.8-18.9 13.1-3.7.7-7.5.7-11.3 0-4.2-.7-8-2.8-10.7-6.1-1-1.2-1.9-2.4-2.9-3.6l-.6-.8-.1.1zm31.6-26.6c0-1.7-.2-3.4-.4-5.1-.3-3-1.1-6-2.4-8.7-1.7-3.9-5-6.7-9.1-7.8-1.9-.4-3.9-.5-5.8-.3-4.5.3-8.6 2.8-11 6.6-1.6 2.7-2.5 5.6-2.9 8.7-.6 3.8-.6 7.7-.2 11.6.2 2.5.8 5 1.8 7.4 1.5 4.3 5.1 7.6 9.5 8.7 1.8.4 3.6.6 5.5.6 3.4 0 6.6-1.3 9-3.7 1.6-1.6 2.8-3.5 3.6-5.5 1.6-4 2.4-8.2 2.4-12.5zM361 139h-17.1c-.9-2.5-1.1-5.1-2.1-7.7-.3.2-.6.3-.7.4-3.3 4.2-8.1 7.1-13.4 7.9-3.6.9-7.3 1.1-11 .7-5.8-.6-11.2-3.2-15.3-7.4-3.3-3.4-5.2-7.8-5.5-12.6-.2-2.6 0-5.2.6-7.7 1.2-5 4.4-9.3 9-11.8 3.1-1.8 6.5-3 10-3.7 2.3-.4 4.7-.7 7-1.1l8-1.2 5.8-1c.6-.1 1.1-.3 1.7-.5 2.8-.8 4.4-3.6 3.6-6.4-.3-2.4-1.8-4.4-4-5.3-1.4-.7-2.9-1.1-4.5-1.3-3-.5-6.1-.5-9.1 0-3.4.5-6.2 2.9-7.3 6.1-.4 1-.7 2.1-1.1 3.2h-17.2v-1.2c.3-2.9 1-5.8 2.1-8.5 2.1-5.4 6.6-9.5 12.1-11.2 3.1-1 6.2-1.6 9.4-1.8 4.2-.3 8.4-.3 12.6 0 4.5.3 8.9 1.3 13 2.9 2.9 1.2 5.6 3 7.6 5.4 2 2.3 3.2 5.1 3.5 8.1.1 1.2.2 2.4.2 3.5v37.7c0 2.4 0 4.8.2 7.2.1 2.1.6 4.1 1.5 6 .2.6.3 1 .4 1.3zm-19.4-35.1l-1.3.3c-3.3.8-6.6 1.6-9.9 2.3-3.4.7-6.7 1.7-9.8 3.1-1.9.8-3.5 2-5 3.5-3 3.4-2.6 8.5.7 11.4.4.4.9.7 1.5 1 1.4.7 3 1.2 4.6 1.2 2.8.1 5.5-.3 8.2-1.1 3.4-.9 6.4-2.8 8.7-5.4 1.4-1.5 2.3-3.5 2.3-5.6 0-3.3 0-6.6.2-9.9-.1-.2-.2-.5-.2-.8zM105 139H87.9c-.9-2.5-1.1-5.1-2.1-7.7-.3.1-.5.3-.8.6-2.9 3.7-7 6.3-11.6 7.4-4.2 1.3-8.5 1.7-12.9 1.1-6.2-.6-11.9-3.5-16-8.2-3-3.4-4.6-7.8-4.7-12.3-.2-2.7.1-5.3.8-7.9 1.3-4.8 4.5-8.9 9-11.2 3.1-1.7 6.4-2.9 9.9-3.5 2.9-.5 5.8-.9 8.7-1.3s6.3-1 9.4-1.5c1.4-.2 2.8-.5 4.2-.9.7-.2 1.4-.6 2.1-1 1.1-.7 1.8-1.9 1.9-3.1.6-3.1-1-6.2-3.9-7.6-1.5-.7-3-1.2-4.6-1.4-3-.5-6.1-.5-9.2 0-3.2.5-5.9 2.7-7 5.7-.5 1.1-.8 2.3-1.3 3.6H42.4v-1c.3-3.2 1.1-6.3 2.3-9.2 2.1-5.1 6.4-9 11.6-10.7 3.1-1 6.4-1.6 9.7-1.8 4.2-.3 8.4-.3 12.5 0 5 .3 9.9 1.4 14.5 3.5 2 .9 3.7 2.1 5.3 3.6 2.9 2.9 4.6 6.8 4.7 10.9v43.1c-.1 2.1.1 4.3.6 6.4.3 1.1.7 2.1 1 3.1.1.5.3.8.4 1.3zm-19.3-35.1l-1.5.3c-3.2.8-6.5 1.6-9.8 2.3-3.3.6-6.6 1.6-9.7 2.9-1.8.9-3.5 2-4.9 3.5-3.1 3.3-2.9 8.4.4 11.4.4.4.9.7 1.3 1 1.5.9 3.2 1.3 5 1.4 2.2.1 4.4-.2 6.6-.7 3.4-.7 6.5-2.4 9.1-4.7 2-1.7 3.2-4 3.4-6.6 0-2.6.2-5.3.3-7.9-.1-.9-.2-1.8-.2-2.9zM266 41v97.9c-.8.2-15.3.3-16.9 0V41c.8-.2 15.4-.2 16.9 0zM199 139h-18V69.4c.8-.2 15.1-.3 17 0l1.4 8.4c.2-.2.4-.5.5-.7.4-.8.8-1.6 1.3-2.3 2.3-3.8 6.3-6.4 10.8-6.8 1.7-.2 3.5-.2 5.3-.2.6.1 1.1.2 1.7.4v17.7c-.9 0-1.8-.2-2.7-.2-3.7 0-7.4 1.4-10.1 4-3 2.8-5.1 6.3-6.3 10.2-.7 2.4-1.1 4.8-1 7.3V139zM243 139h-17.4V69.1H243c.2.7.3 68.5 0 69.9zM290 139h-17.4V69.1h17.2c.4.7.5 68.3.2 69.9zM272 57.4V40.9h17.4v16.4c-.9.3-15.8.3-17.4.1zM226 40.9h17.2c.3.8.3 13.7 0 16.4H226c-.2-.6-.2-15.1 0-16.4zM379 50.2c0 5.5-4.5 9.9-10 9.9s-9.9-4.5-9.9-10 4.5-9.9 9.9-9.9c5.6 0 10 4.4 10 10zm-1.3 0c0-4.8-3.9-8.7-8.7-8.7s-8.7 3.9-8.7 8.7 3.9 8.7 8.7 8.7c4.7.1 8.6-3.6 8.7-8.4v-.3z"/>
  <path d="M372 50.5c2.4.9 2.1 2.9 2.1 4.9h-1.5c0-.3 0-.7-.1-1v-1.3c-.1-.9-.8-1.6-1.7-1.7-.9 0-1.9 0-2.9-.2v4.3h-1.7c-.3-3.6-.3-7.2 0-10.8 2-.1 4.1 0 6.1.3 1.2.2 2.1 1.3 2.1 2.5.3 1.2-.4 2.5-1.6 2.9l-.8.1zm-4.3-.6h2.6c.4-.1.9-.2 1.3-.4.6-.3.9-1 .8-1.7.1-.6-.3-1.3-.9-1.5-1.2-.4-2.5-.5-3.8-.3v3.9z"/>
</svg>
