<svg xmlns="http://www.w3.org/2000/svg" width="1450.332" height="1538.333" xmlns:v="https://vecta.io/nano"><path fill="#fff" d="M1373.365 169.237c-40.146-37.132-120.698-65.57-192.797-94.275-20.48-8.154-72.42-23.81-126.179-36.313C995.94 25.055 935.34 14.823 910.683 12.504L793.024 2.333c-6.969-.49-71.357-.323-80.383-.527C673.363.92 544 4.667 389.123 41.477c-36.057 8.57-74.086 20.526-113.872 33.485-47.028 15.318-85.912 30.485-118.061 45.398-32.732 15.185-58.482 30.143-78.736 48.876C7.572 234.796 4 315.29 4 379.447c0 0 .188 37.45 11.724 109.265 7.221 44.953 18.279 103.369 38.402 174.493 13.968 49.368 30.541 106.258 56.134 167.219 14.802 35.256 30.791 71.947 50.207 111.02 17.673 35.563 36.638 72.979 58.337 109.418 40.695 68.342 87.485 136.762 136.688 199.783 26.192 33.549 54.002 62.1 81.971 91.275 29.853 31.145 60.884 62.586 89.316 87.869 61.524 54.709 107.556 93.545 165.646 103.896 14.52 2.588 56.341 1.729 69.014-.455 55.562-9.564 110.601-54.684 169.603-110.441 54.711-51.705 109.507-105.807 165.287-174.146C1201.334 1120 1290.334 953.667 1341.56 829.422c60.487-146.707 81.592-267.697 92.832-347.128l13.428-102.847c-.001-64.157-3.574-144.651-74.455-210.21z"/><path d="M878.5 686.333c-205.5 41-317.5 90.5-317.5 90.5-86.5 35-196.482 93.232-255 173.5-41.131 56.42-25.027 98.791-9.943 130.785 31.105 47.477 64.958 93.688 99.652 138.127 22.887 29.314 78.586 88.367 78.586 88.367 24.876 25.951 57.177 59.07 86.389 85.047 58.349 51.885 94.485 83.225 140.607 90.779 19.709 3.229 52.613-1.045 55.489-1.49 43.324-7.459 90.039-51.098 141.214-97.242 60.623-54.666 107.377-105.32 158.807-168.326 39.367-48.229 76.24-99.885 109.391-154.059 54.703-89.395 99.273-182.195 128.196-252.348 26.833-65.08 45.636-124.735 59.262-178.378-62.552-.533-280.309 15.865-475.15 54.738zm460.22-479.638c-27.966-25.866-89.22-51.042-145.908-73.253-9.245-3.623-21.805-7.368-31.116-11.075-15.529-6.183-64.047-21.271-118.863-34.02-59.905-13.933-117.12-23.18-136.926-25.043L789.823 53.259c-5.376-.211-32.478-.266-48.751-.299l-29.581-.142-9.543-.096c-23.29 0-147.26.851-301.025 37.396-35.915 8.536-76.543 21.179-110.868 32.359-43.066 14.027-79.881 29.552-111.39 44.169-30.892 14.33-51.111 25.682-65.563 39.049-53.553 49.532-60.063 110.84-60.076 173.467.034 2.141 2.756 37.19 13.078 101.457 5.981 37.236 15.336 95.235 36.12 168.694 6.566 23.207 13.707 47.599 21.81 72.69 29.567-35.223 118.204-85.393 359.572-116.072C685 580.333 939.25 574.313 1105.98 571.285l262.062-2.844.476-2.337c6.697-33.372 13.505-63.759 17.354-90.96 7.646-54.035 9.798-88.882 10.923-98.58-.147-61.697-5.264-121.022-58.075-169.869z" fill="#e32431"/><path d="M1205.666 274.667h77l-41.334 194.666H1164zm-188.334 0H1190l-10.75 51.666H1131l-30 143h-77.668l31-142.666H1006zM920 469.333h80l-21.334-194.667H878L774.332 469.333h74L862.668 438h56.989l.343 31.333zM884.172 391l34.16-74.667.814 74.667h-34.974zM734 346h70s24.332-77.667-73.668-77.667S611 355.666 611 355.666s-40 121 75.666 118.667c24.3-.49 52.334-5 77.229-26.454 24.422-21.046 29.438-50.546 29.438-50.546h-71.666s-6 26.333-24 27-17.668-25-9-59.333S705 319.334 721 319s14.332 16 13 27zm-310.668-71.333H501l-27.5 126.917s-4.5 20.5 10.75 20.5 19.5-16.25 20.75-21.5l26.5-125.917h77.25L580 410.333s-10.25 63.066-102.25 64.033-84.75-50.283-83-65.283l28.582-134.416zm-111 0H209l-41 194.667h101.667S362.68 472.268 384 370.001c19.666-94.334-61.334-95.334-71.668-95.334zm-5.425 74.334c-.542 21.871-9.672 49.183-16.574 60.333-13 21-37.333 15.333-37.333 15.333l22.333-106c12.643-1.957 21.004.521 26.224 5.773 5.624 5.659 5.599 14.539 5.35 24.561z" fill="#fff"/></svg>