<?xml version="1.0" encoding="UTF-8" standalone="no"?>
<!-- Generator: Adobe Illustrator 15.1.0, SVG Export Plug-In . SVG Version: 6.00 Build 0)  -->

<svg
   xmlns:dc="http://purl.org/dc/elements/1.1/"
   xmlns:cc="http://creativecommons.org/ns#"
   xmlns:rdf="http://www.w3.org/1999/02/22-rdf-syntax-ns#"
   xmlns:svg="http://www.w3.org/2000/svg"
   xmlns="http://www.w3.org/2000/svg"
   xmlns:sodipodi="http://sodipodi.sourceforge.net/DTD/sodipodi-0.dtd"
   xmlns:inkscape="http://www.inkscape.org/namespaces/inkscape"
   version="1.1"
   id="Ebene_1"
   x="0px"
   y="0px"
   width="963.71198"
   height="300"
   viewBox="0 0 963.71201 300.00001"
   enable-background="new 0 0 131.801 67.588"
   xml:space="preserve"
   sodipodi:docname="KTM_Bike_Industries.svg"
   inkscape:version="0.92.1 r15371"><metadata
   id="metadata25"><rdf:RDF><cc:Work
       rdf:about=""><dc:format>image/svg+xml</dc:format><dc:type
         rdf:resource="http://purl.org/dc/dcmitype/StillImage" /><dc:title></dc:title></cc:Work></rdf:RDF></metadata><defs
   id="defs23" /><sodipodi:namedview
   pagecolor="#ffffff"
   bordercolor="#666666"
   borderopacity="1"
   objecttolerance="10"
   gridtolerance="10"
   guidetolerance="10"
   inkscape:pageopacity="0"
   inkscape:pageshadow="2"
   inkscape:window-width="1264"
   inkscape:window-height="723"
   id="namedview21"
   showgrid="false"
   inkscape:zoom="0.35440083"
   inkscape:cx="-68.345952"
   inkscape:cy="-301.67129"
   inkscape:window-x="-8"
   inkscape:window-y="-8"
   inkscape:window-maximized="1"
   inkscape:current-layer="g16" />
<g
   id="g18"
   transform="translate(0,232.412)">
	<g
   id="g16">
		<g
   id="g12"
   transform="matrix(8.3044983,0,0,8.3044983,-65.414533,-297.82654)">
			<polygon
   points="50.136,37.16 59.767,12.934 36.895,12.934 38.741,7.877 100.672,7.877 99.225,12.934 76.142,12.934 69.634,31.742 85.157,16.189 99.384,16.189 97.124,26.803 109.088,16.203 123.924,16.203 117.779,44.002 103.031,44.002 104.567,34.023 93.302,43.977 79.61,44.002 81.4,33.918 70.595,43.988 35.659,43.977 28.156,34.023 24.083,43.977 7.877,43.973 19.667,16.189 35.728,16.203 31.208,26.984 44.676,16.18 55.672,16.18 42.521,27.17 "
   id="polygon10"
   style="fill:#ec621d" />
		</g>
		
	</g>
</g>
</svg>